PathFileType	4	(X/Y/Z)	/Users/itak/Documents/Research/Walk-IL/dataset/trc/00491_00167.trc
DataRate	CameraRate	NumFrames	NumMarkers	Units	OrigDataRate	OrigDataStartFrame	OrigNumFrames
100.000000	100.000000	4	53	mm	100.000000	207	552
Frame#	Time	RPSI			LPSI			L3			STRN			T10			C7			CLAV			RBAK			LBAK			LSHO			LUPA			LAEL			LAOL			LWTS			LWPS			LFRA			LIFD			LHPS			LHTS			RSHO			RUPA			RAEL			RAOL			RWTS			RWPS			RFRA			RIFD			RHTS			RHPS			RBHD			LFHD			RFHD			LBHD			LHIP			RHIP			RASI			LASI			LKNE			LTHI			LANK			LTIP			LTOE			LMT1			LMT5			LHEE			RKNE			RTHI			RANK			RTIP			RTOE			RMT1			RMT5			RHEE			
		X1	Y1	Z1	X2	Y2	Z2	X3	Y3	Z3	X4	Y4	Z4	X5	Y5	Z5	X6	Y6	Z6	X7	Y7	Z7	X8	Y8	Z8	X9	Y9	Z9	X10	Y10	Z10	X11	Y11	Z11	X12	Y12	Z12	X13	Y13	Z13	X14	Y14	Z14	X15	Y15	Z15	X16	Y16	Z16	X17	Y17	Z17	X18	Y18	Z18	X19	Y19	Z19	X20	Y20	Z20	X21	Y21	Z21	X22	Y22	Z22	X23	Y23	Z23	X24	Y24	Z24	X25	Y25	Z25	X26	Y26	Z26	X27	Y27	Z27	X28	Y28	Z28	X29	Y29	Z29	X30	Y30	Z30	X31	Y31	Z31	X32	Y32	Z32	X33	Y33	Z33	X34	Y34	Z34	X35	Y35	Z35	X36	Y36	Z36	X37	Y37	Z37	X38	Y38	Z38	X39	Y39	Z39	X40	Y40	Z40	X41	Y41	Z41	X42	Y42	Z42	X43	Y43	Z43	X44	Y44	Z44	X45	Y45	Z45	X46	Y46	Z46	X47	Y47	Z47	X48	Y48	Z48	X49	Y49	Z49	X50	Y50	Z50	X51	Y51	Z51	X52	Y52	Z52	X53	Y53	Z53	

208	2.07	-1197.598266601562	923.9161376953125	-129.3096618652344	-1096.317626953125	917.1582641601562	-232.2833862304688	-1147.077270507812	1029.986206054688	-151.7757873535156	-902.4301147460938	1209.151245117188	-4.863296031951904	-1152.892578125	1153.517822265625	-156.4012756347656	-1084.167724609375	1417.589111328125	-109.1745147705078	-922.5958862304688	1323.15869140625	-30.25091361999512	-1192.817504882812	1307.32568359375	-57.6806755065918	-1066.359497070312	1365.200805664062	-211.3782806396484	-937.6885986328125	1375.559448242188	-231.3093414306641	-904.8924560546875	1253.043334960938	-320.2944641113281	-889.0795288085938	1033.974243164062	-336.445068359375	-991.7408447265625	1030.611572265625	-318.9991760253906	-873.9710693359375	818.9920043945312	-271.6839599609375	-883.56982421875	812.8529052734375	-345.1359252929688	-877.7478637695312	944.2886962890625	-339.8228759765625	-901.4175415039062	657.6992797851562	-289.6165466308594	-891.3456420898438	734.2547607421875	-347.5724182128906	-873.491455078125	730.1749877929688	-277.8014831542969	-1102.216064453125	1391.09912109375	64.57452392578125	-1160.258178710938	1337.332397460938	122.0790863037109	-1223.5810546875	1058.552612304688	176.6561889648438	-1251.570678710938	1044.53125	116.1502075195312	-1135.769409179688	840.760986328125	184.8742523193359	-1221.73193359375	835.7540283203125	207.8457489013672	-1231.504272460938	1000.726989746094	188.2807922363281	-1154.753173828125	685.252685546875	187.5103149414062	-1137.779907226562	742.4776000976562	198.2299194335938	-1214.720947265625	745.8726806640625	208.6641387939453	-1007.985900878906	1617.162353515625	7.207869052886963	-856.5989379882812	1611.837524414062	-134.2579040527344	-870.6007690429688	1623.922119140625	-4.840245723724365	-1005.370300292969	1605.802368164062	-170.2528686523438	-909.1055297851562	832.393310546875	-220.7700042724609	-1207.424560546875	821.8750610351562	50.66827392578125	-1083.035400390625	860.7771606445312	76.32222747802734	-905.2860717773438	875.0798950195312	-102.1910400390625	-814.4719848632812	440.204345703125	-73.61903381347656	-816.665283203125	592.0413208007812	-118.2541198730469	-933.1937866210938	45.01792907714844	-147.1337280273438	-831.5817260742188	283.7073974609375	-96.91156005859375	-789.7224731445312	41.72384262084961	50.90119552612305	-866.867919921875	46.22141265869141	25.46546363830566	-801.7521362304688	49.0816650390625	-67.58781433105469	-1007.385681152344	48.52335739135742	-120.2705917358398	-1220.631591796875	446.713134765625	80.24617004394531	-1189.131469726562	693.8359375	94.25146484375	-1520.570068359375	215.4022521972656	-153.843994140625	-1312.044555664062	345.2485046386719	28.56379890441895	-1416.197875976562	34.22579574584961	-148.2122344970703	-1409.755249023438	90.17074584960938	-182.7874145507812	-1497.592163085938	89.77877807617188	-121.5430374145508	-1507.682495117188	277.7613525390625	-200.6098785400391	
209	2.08	-1188.80908203125	924.162109375	-125.1420516967773	-1089.689331054688	919.983154296875	-229.7403717041016	-1137.816284179688	1030.9736328125	-147.9714202880859	-893.8102416992188	1210.824340820312	-0.7075687050819397	-1143.60400390625	1154.69189453125	-152.9704742431641	-1075.286743164062	1419.053466796875	-106.0195922851562	-913.9364624023438	1324.820556640625	-26.19906806945801	-1184.009155273438	1308.62109375	-54.76457977294922	-1056.97607421875	1366.499633789062	-208.1942749023438	-928.1370239257812	1376.955322265625	-227.3063201904297	-893.8812255859375	1254.27880859375	-315.4820861816406	-875.5175170898438	1035.277099609375	-330.4910278320312	-978.4224243164062	1030.970092773438	-314.7496643066406	-859.1107177734375	820.885498046875	-264.1940307617188	-867.5125732421875	814.2050170898438	-337.7364196777344	-863.1689453125	945.7005004882812	-333.1428833007812	-884.3787231445312	659.1917724609375	-281.6181640625	-874.29248046875	735.5471801757812	-339.8254089355469	-857.4412231445312	732.0772705078125	-269.7549743652344	-1094.012817382812	1392.888061523438	67.68080902099609	-1152.159301757812	1339.088012695312	125.0892562866211	-1214.4599609375	1060.186767578125	180.5082244873047	-1242.233520507812	1045.694946289062	119.9984359741211	-1124.868041992188	843.2185668945312	189.8042449951172	-1210.806762695312	837.5377197265625	212.6482391357422	-1221.9296875	1002.339538574219	192.3459625244141	-1142.420654296875	687.5890502929688	192.9764862060547	-1125.994018554688	744.992919921875	203.5085144042969	-1202.967407226562	747.7237548828125	213.8150329589844	-997.3326416015625	1619.18701171875	10.32437992095947	-846.750244140625	1612.192993164062	-131.873291015625	-859.967041015625	1624.687255859375	-2.477934837341309	-995.7728881835938	1607.431030273438	-167.0757751464844	-900.5943603515625	833.1928100585938	-217.4212493896484	-1196.662475585938	822.3392333984375	55.30812835693359	-1073.276733398438	862.4352416992188	80.45536041259766	-895.938232421875	875.9054565429688	-98.79923248291016	-810.3191528320312	438.8806762695312	-72.56548309326172	-810.7332763671875	591.121826171875	-116.4863891601562	-933.1994018554688	44.99596786499023	-147.1435852050781	-829.14501953125	282.5931091308594	-96.25459289550781	-789.7614135742188	41.75299072265625	50.88697052001953	-866.7942504882812	46.23889923095703	25.38837051391602	-801.6923828125	48.99423599243164	-67.70783233642578	-1007.399536132812	48.66641235351562	-120.2058944702148	-1202.038818359375	447.9627075195312	93.80556488037109	-1176.782470703125	695.3217163085938	101.5854415893555	-1502.256713867188	222.5296020507812	-142.4207763671875	-1293.252075195312	347.2525939941406	41.50609970092773	-1402.140014648438	35.68999099731445	-134.1036224365234	-1393.477294921875	94.051513671875	-169.3146820068359	-1482.154296875	96.40064239501953	-109.4897537231445	-1488.66357421875	284.0364990234375	-189.805419921875	
210	2.09	-1180.107055664062	924.6158447265625	-120.8097686767578	-1083.162719726562	922.6983032226562	-227.0827026367188	-1128.87646484375	1031.964233398438	-144.1756896972656	-885.3923950195312	1212.537719726562	3.444774389266968	-1134.478759765625	1155.934936523438	-149.510986328125	-1066.564697265625	1420.576049804688	-102.8257141113281	-905.4817504882812	1326.532958984375	-22.11916732788086	-1175.385375976562	1309.957397460938	-51.84462356567383	-1047.738159179688	1367.900512695312	-204.9983062744141	-918.7269287109375	1378.431884765625	-223.2486572265625	-882.9349975585938	1255.599853515625	-310.5699768066406	-861.9365234375	1036.728759765625	-324.44140625	-965.082763671875	1031.404052734375	-310.4629211425781	-844.1044921875	822.9971313476562	-256.5635681152344	-851.28271484375	815.77197265625	-330.1720581054688	-848.5224609375	947.2887573242188	-326.3499450683594	-866.8021240234375	660.9705200195312	-273.3952941894531	-856.9522705078125	737.0713500976562	-331.8819274902344	-841.07275390625	734.24853515625	-261.5362548828125	-1086.020629882812	1394.664306640625	70.82611083984375	-1144.283569335938	1340.808227539062	128.0999298095703	-1205.6669921875	1061.787475585938	184.2864074707031	-1233.1015625	1046.78955078125	123.7280960083008	-1114.133422851562	845.815185546875	194.9600830078125	-1200.087646484375	839.3265991210938	217.3899383544922	-1212.664306640625	1003.916198730469	196.322509765625	-1129.930053710938	690.0855712890625	198.9294586181641	-1114.236206054688	747.71435546875	209.2224578857422	-1191.254272460938	749.6159057617188	219.0857086181641	-986.90869140625	1621.204467773438	13.60111999511719	-837.1373291015625	1612.644897460938	-129.3195495605469	-849.5711059570312	1625.526733398438	0.05797678604722023	-986.3992919921875	1609.0830078125	-163.7274627685547	-892.3306274414062	833.9890747070312	-214.2009429931641	-1185.997314453125	823.1455078125	60.20578002929688	-1063.508056640625	864.2676391601562	84.57683563232422	-886.7765502929688	876.7320556640625	-95.53558349609375	-806.41064453125	437.5965576171875	-71.78995513916016	-805.0869750976562	590.2078857421875	-114.9801788330078	-933.2037353515625	44.97329330444336	-147.1562652587891	-826.8743896484375	281.5224914550781	-95.75498199462891	-789.7763671875	41.76905059814453	50.83920669555664	-866.7068481445312	46.27424240112305	25.30154991149902	-801.6146850585938	48.88600540161133	-67.85266876220703	-1007.414184570312	48.8173942565918	-120.142936706543	-1183.357299804688	449.7927856445312	107.0833740234375	-1164.53271484375	697.146728515625	108.949462890625	-1483.12744140625	228.127197265625	-130.7253570556641	-1274.203247070312	349.6991577148438	54.29349899291992	-1385.33447265625	37.83784866333008	-118.4993286132812	-1375.2998046875	97.59331512451172	-154.7624359130859	-1464.534057617188	102.3050842285156	-95.94508361816406	-1469.291748046875	288.6368103027344	-179.0648345947266	
211	2.1	-1171.47314453125	925.286376953125	-116.2905197143555	-1076.475341796875	925.1394653320312	-224.1062469482422	-1120.205200195312	1033.004638671875	-140.3885650634766	-877.1431274414062	1214.314208984375	7.584044933319092	-1125.513916015625	1157.263671875	-146.0363311767578	-1057.98876953125	1422.163452148438	-99.59445190429688	-897.2105102539062	1328.316772460938	-18.02333641052246	-1166.927368164062	1311.346313476562	-48.91246795654297	-1038.639282226562	1369.412109375	-201.7870483398438	-909.4674072265625	1380.000366210938	-219.1534423828125	-872.0690307617188	1257.023193359375	-305.5796813964844	-848.3657836914062	1038.3466796875	-318.3027954101562	-951.7271118164062	1031.927368164062	-306.11669921875	-828.9835205078125	825.35009765625	-248.8021392822266	-834.9324951171875	817.5802001953125	-322.4512329101562	-833.8413696289062	949.0718994140625	-319.4552612304688	-848.715576171875	663.0565795898438	-264.9223022460938	-839.3732299804688	738.8565673828125	-323.7419738769531	-824.4345092773438	736.7115478515625	-253.1491851806641	-1078.217163085938	1396.4443359375	74.00743865966797	-1136.604614257812	1342.51220703125	131.1132202148438	-1197.166015625	1063.376342773438	187.9916687011719	-1224.15966796875	1047.84814453125	127.3495941162109	-1103.583251953125	848.5555419921875	200.3075103759766	-1189.587280273438	841.1420288085938	222.0669860839844	-1203.684692382812	1005.482482910156	200.2166900634766	-1117.346313476562	692.7591552734375	205.3233642578125	-1102.551635742188	750.6494750976562	215.3284912109375	-1179.622314453125	751.5721435546875	224.4613494873047	-976.7035522460938	1623.21923828125	17.0504150390625	-827.7468872070312	1613.213256835938	-126.5823745727539	-839.4058227539062	1626.447509765625	2.791964054107666	-977.2265625	1610.779541015625	-160.2081298828125	-884.304931640625	834.77490234375	-211.1021118164062	-1175.404541015625	824.3046264648438	65.3985595703125	-1053.657470703125	866.286376953125	88.66866302490234	-877.7652587890625	877.5670776367188	-92.40988922119141	-802.7682495117188	436.3546447753906	-71.26322174072266	-799.7457885742188	589.2892456054688	-113.7085494995117	-933.213134765625	44.95266723632812	-147.1667938232422	-824.7921752929688	280.5004577636719	-95.41577911376953	-789.7756958007812	41.77676391601562	50.7705078125	-866.613525390625	46.32167434692383	25.21147346496582	-801.5265502929688	48.76948547363281	-68.01353454589844	-1007.433288574219	48.96901702880859	-120.0773315429688	-1164.626586914062	452.1559753417969	120.0576858520508	-1152.321655273438	699.3072509765625	116.3562850952148	-1463.258544921875	232.1349792480469	-118.7268218994141	-1254.927612304688	352.4843139648438	66.93926239013672	-1366.04443359375	40.31431198120117	-101.781494140625	-1355.42724609375	100.5977554321289	-139.3951263427734	-1444.923706054688	107.2424163818359	-81.13160705566406	-1449.599365234375	291.5673217773438	-168.2501373291016	
